<svg width="284" height="162" viewBox="0 0 284 162" fill="none" xmlns="http://www.w3.org/2000/svg">
<g filter="url(#filter0_ii_2035_20701)">
<g filter="url(#filter1_d_2035_20701)">
<path d="M32.9795 102.373C34.5889 102.3 36.1617 102.87 37.3496 103.958L76.7119 140.023C78.5544 141.712 79.1713 144.358 78.2656 146.688C77.3599 149.017 75.1172 150.551 72.6182 150.551H26.2754C26.2318 150.551 26.1881 150.551 26.1445 150.55C19.1224 150.397 13.0155 145.837 10.3115 139.718C7.43174 133.2 8.45902 125.241 14.6895 118.621C14.6975 118.613 14.7058 118.604 14.7139 118.596C16.7163 116.493 19.8331 113.376 22.6211 110.588C25.5103 107.699 27.929 105.277 28.7725 104.35L28.9805 104.132C30.0456 103.071 31.4707 102.442 32.9795 102.373Z" fill="#9FFFC0" stroke="#9FFFC0" stroke-width="12.1188" stroke-linecap="round" stroke-linejoin="round"/>
<path d="M153.923 6.58008C167.218 6.27561 178.693 7.99257 188.817 12.124C198.985 16.273 207.467 22.7252 214.938 31.4248C229.477 48.3522 240.428 74.1427 253.003 108.727C253.076 108.779 253.158 108.838 253.25 108.901C254.232 109.581 255.518 110.359 257.312 111.485C260.625 113.565 265.211 116.542 268.808 120.37C268.811 120.374 268.815 120.378 268.818 120.382C275.202 127.214 277.769 135.071 274.171 141.944C270.869 148.251 263.695 150.938 257.217 150.938C253.909 150.937 210.512 150.841 167.112 150.744C123.875 150.648 80.6346 150.551 76.9336 150.55C62.4007 150.849 50.4741 146.832 41.8838 139.502C33.2695 132.151 28.4988 121.877 27.6094 110.648C27.6084 110.636 27.6074 110.622 27.6064 110.609C26.3642 93.5282 29.7148 79.0386 38.1016 66.9639C46.4211 54.986 59.2705 45.999 75.9092 39.041L75.9541 39.0225C88.7649 33.7859 98.1732 26.608 110.373 19.5996C122.273 12.7638 135.59 7.00019 153.923 6.58105V6.58008ZM252.512 108.349C252.516 108.352 252.521 108.356 252.527 108.361C252.472 108.305 252.459 108.301 252.512 108.349Z" fill="#9FFFC0" stroke="#9FFFC0" stroke-width="12.1188" stroke-linecap="round" stroke-linejoin="round"/>
<mask id="path-3-outside-1_2035_20701" maskUnits="userSpaceOnUse" x="38.4844" y="90.3906" width="69" height="43" fill="black">
<rect fill="white" x="38.4844" y="90.3906" width="69" height="43"/>
<path fill-rule="evenodd" clip-rule="evenodd" d="M51.4844 120.454C61.3733 120.648 64.4757 110.759 64.6696 103.391C63.894 124.914 87.1621 126.077 95.1121 108.044"/>
</mask>
<path d="M51.722 108.337C45.0302 108.206 39.4991 113.525 39.3679 120.216C39.2367 126.908 44.5551 132.439 51.2468 132.57L51.722 108.337ZM64.6696 103.391L76.7842 103.709C76.9597 97.0417 71.7141 91.4855 65.0473 91.2777C58.3804 91.0699 52.7989 96.2885 52.5587 102.954L64.6696 103.391ZM106.201 112.933C108.901 106.809 106.125 99.6552 100.001 96.9552C93.8765 94.2553 86.723 97.0313 84.0231 103.156L106.201 112.933ZM51.4844 120.454L51.2468 132.57C61.2118 132.766 68.1937 127.465 72.0846 121.026C75.5871 115.23 76.6552 108.613 76.7842 103.709L64.6696 103.391L52.555 103.072C52.5262 104.169 52.3872 105.315 52.1371 106.352C51.8822 107.409 51.5717 108.108 51.3407 108.49C51.1276 108.843 51.1123 108.72 51.4349 108.525C51.8318 108.286 52.0595 108.344 51.722 108.337L51.4844 120.454ZM64.6696 103.391L52.5587 102.954C52.2866 110.505 54.0989 117.566 58.3773 123.125C62.7006 128.742 68.857 131.9 75.3139 132.599C88.1005 133.984 100.45 125.979 106.201 112.933L95.1121 108.044L84.0231 103.156C81.8244 108.143 78.5647 108.572 77.9237 108.503C77.6667 108.475 77.6547 108.433 77.5849 108.342C77.4703 108.193 76.6649 107.038 76.7806 103.827L64.6696 103.391Z" fill="#9FFFC0" mask="url(#path-3-outside-1_2035_20701)"/>
<path d="M61.4375 86.7803C64.1972 86.2284 67.3071 86.2541 70.0869 86.9092C72.4972 87.4772 76.2648 88.9214 78.1494 92.5811C79.9513 95.8498 79.6771 99.2254 78.1797 101.88C76.912 104.127 74.9853 105.51 73.8838 106.198L73.8828 106.197C71.8016 107.534 69.8508 108.388 68.3945 108.915C67.6529 109.183 67.0263 109.371 66.5586 109.498C66.3243 109.562 66.1284 109.61 65.9766 109.646C65.9008 109.663 65.8358 109.678 65.7822 109.689C65.7554 109.695 65.731 109.701 65.71 109.705C65.6995 109.707 65.6897 109.709 65.6807 109.711C65.6762 109.712 65.672 109.713 65.668 109.714C65.6659 109.714 65.6631 109.714 65.6611 109.715H65.6582L64.4678 103.774L65.6562 109.716C64.5036 109.946 63.3082 109.837 62.2168 109.4C60.882 108.866 59.3202 107.754 58.3652 107.032C57.2767 106.209 55.8394 105.023 54.8252 103.84L54.8174 103.83C53.5554 102.352 52.4432 100.543 52.0107 98.4131C51.5457 96.1225 51.9561 93.8532 53.1406 91.9307C55.2325 88.5357 59.0032 87.2671 61.4375 86.7803Z" fill="black" stroke="#9FFFC0" stroke-width="12.1188" stroke-linecap="round" stroke-linejoin="round"/>
<path d="M60.4609 61.291C64.7308 60.9198 68.6156 62.6594 71.084 65.9336C73.4461 69.067 74.1451 73.0745 73.5723 76.9414C73.5616 77.0132 73.5494 77.0848 73.5361 77.1562C72.1531 84.6245 65.8691 91.39 58.2471 92.3428C58.1717 92.3522 58.0962 92.3596 58.0205 92.3662C53.7637 92.7364 49.8458 91.0061 47.3857 87.6748C45.0247 84.4773 44.416 80.4035 45.1387 76.501C45.8582 72.6153 47.8245 69.0909 50.3633 66.4492C52.8605 63.8507 56.3749 61.6463 60.4609 61.291Z" fill="black" stroke="#9FFFC0" stroke-width="12.1188" stroke-linecap="round" stroke-linejoin="round"/>
<path d="M88.0293 61.2891C92.2799 60.935 96.2483 62.5817 98.7754 65.9336C101.201 69.1511 101.805 73.2553 101.083 77.1562C100.358 81.072 98.3703 84.5552 95.8301 87.1641C93.3209 89.7409 89.9028 91.8314 86.0195 92.3379C85.9263 92.35 85.8329 92.3604 85.7393 92.3682C81.4884 92.7224 77.5193 91.0758 74.9922 87.7236C72.5667 84.5061 71.9631 80.402 72.6855 76.501C73.4051 72.6153 75.3714 69.0909 77.9102 66.4492C80.4073 63.8509 83.921 61.6464 88.0068 61.291C88.0141 61.2904 88.0221 61.2897 88.0293 61.2891Z" fill="black" stroke="#9FFFC0" stroke-width="12.1188" stroke-linecap="round" stroke-linejoin="round"/>
<path d="M94.1406 65.5664C95.8101 64.5299 97.7268 64.4312 99.3193 64.9697C100.626 65.4117 101.439 66.1765 101.778 66.5273C102.172 66.9343 102.435 67.3173 102.581 67.5459C103.073 68.3153 103.352 69.1161 103.45 69.3994C103.602 69.8378 103.74 70.3054 103.859 70.7441C104.099 71.6271 104.328 72.643 104.502 73.5801C104.652 74.3891 104.846 75.5804 104.846 76.6201C104.846 78.385 104.358 80.638 103.729 82.4316C103.398 83.3724 102.916 84.5207 102.221 85.583C101.765 86.2795 100.641 87.8481 98.6504 88.7129C98.3675 88.9547 98.0297 89.2771 97.626 89.6689C97.4457 89.8439 97.2083 90.0758 97.0078 90.2637C96.967 90.302 96.4136 90.843 95.7588 91.2559C95.5891 91.3628 95.0227 91.7178 94.2188 91.958C93.7918 92.0856 90.7381 92.961 88.2061 90.4658C85.9532 88.2457 86.4228 85.4935 86.46 85.2412C86.479 85.112 86.5029 84.9886 86.5273 84.8721C86.4334 84.7908 86.3308 84.7013 86.2139 84.5996C84.258 83.0741 82.1963 80.3811 82.4951 76.7949C82.8427 72.6254 86.0384 70.3199 88.8496 69.4756C89.3309 69.3203 89.7906 69.1997 90.1709 69.1084C90.5741 69.0116 91.0063 68.9186 91.3184 68.8496C91.4078 68.8298 91.4913 68.8089 91.5703 68.791C91.6476 68.5693 91.7418 68.3351 91.8584 68.0967C92.1146 67.5729 92.7636 66.4214 94.1406 65.5664ZM97.7354 89.0371L97.7363 89.0391C97.7439 89.0369 97.7513 89.0334 97.7588 89.0312C97.7511 89.0334 97.7431 89.0349 97.7354 89.0371Z" fill="#9FFFC0" stroke="#9FFFC0" stroke-width="12.1188" stroke-linejoin="round"/>
<path d="M66.6279 65.5664C68.2974 64.5299 70.2141 64.4312 71.8066 64.9697C73.113 65.4116 73.9247 66.1764 74.2646 66.5273C74.6588 66.9343 74.922 67.3173 75.0684 67.5459C75.5605 68.315 75.8381 69.116 75.9365 69.3994C76.0888 69.8378 76.2267 70.3054 76.3457 70.7441C76.5851 71.6271 76.8156 72.6429 76.9893 73.5801C77.1392 74.3891 77.333 75.5804 77.333 76.6201C77.3329 78.5095 76.7343 80.8259 76.1104 82.5195C75.7725 83.4367 75.302 84.5212 74.668 85.5176C74.35 86.0172 73.8992 86.6398 73.29 87.2324C72.8436 87.6667 72.1363 88.2545 71.1592 88.6943C70.8718 88.9382 70.5265 89.2669 70.1123 89.6689C69.932 89.844 69.6946 90.0758 69.4941 90.2637C69.4522 90.303 68.8992 90.8435 68.2451 91.2559C68.0751 91.363 67.5088 91.7179 66.7051 91.958C66.2773 92.0858 63.2249 92.9603 60.6934 90.4658C58.4403 88.2455 58.9102 85.4931 58.9473 85.2412C58.9605 85.1511 58.976 85.0636 58.9922 84.9795C58.8821 84.893 58.7636 84.8002 58.6338 84.6992C58.612 84.6822 58.59 84.6647 58.5684 84.6475C56.6081 83.0792 54.5713 80.2586 54.9746 76.6289C55.4203 72.6198 58.4741 70.3376 61.3242 69.4785C61.8101 69.3213 62.2746 69.2005 62.6582 69.1084C63.0613 69.0116 63.4927 68.9186 63.8047 68.8496C63.8944 68.8298 63.9784 68.809 64.0576 68.791C64.1349 68.5693 64.2291 68.3351 64.3457 68.0967C64.6019 67.5729 65.2507 66.4214 66.6279 65.5664Z" fill="#9FFFC0" stroke="#9FFFC0" stroke-width="12.1188" stroke-linejoin="round"/>
<mask id="path-10-outside-2_2035_20701" maskUnits="userSpaceOnUse" x="134.262" y="87.0938" width="57" height="70" fill="black">
<rect fill="white" x="134.262" y="87.0938" width="57" height="70"/>
<path fill-rule="evenodd" clip-rule="evenodd" d="M155.599 100.094C159.09 103.002 164.131 108.625 166.846 111.34C177.122 121.617 181.582 131.312 175.571 138.68C171.499 143.528 161.223 144.497 147.262 144.691"/>
</mask>
<path d="M163.358 90.7838C158.216 86.4991 150.574 87.1938 146.29 92.3355C142.005 97.4772 142.699 105.119 147.841 109.404L163.358 90.7838ZM175.571 138.68L184.851 146.475C184.888 146.43 184.925 146.386 184.962 146.341L175.571 138.68ZM147.093 132.573C140.401 132.666 135.051 138.167 135.144 144.859C135.237 151.552 140.738 156.902 147.43 156.809L147.093 132.573ZM155.599 100.094L147.841 109.404C150.811 111.878 154.604 116.237 158.276 119.909L166.846 111.34L175.415 102.771C173.658 101.014 167.369 94.1264 163.358 90.7838L155.599 100.094ZM166.846 111.34L158.276 119.909C162.91 124.543 165.135 128.019 165.9 130.165C166.234 131.104 166.145 131.393 166.166 131.223C166.2 130.956 166.327 130.841 166.181 131.019L175.571 138.68L184.962 146.341C191.155 138.748 191.511 129.838 188.733 122.036C186.201 114.924 181.058 108.414 175.415 102.771L166.846 111.34ZM175.571 138.68L166.292 130.885C167.098 129.926 167.13 130.752 162.968 131.505C159.209 132.185 154.018 132.477 147.093 132.573L147.262 144.691L147.43 156.809C154.466 156.711 161.394 156.421 167.282 155.356C172.766 154.364 179.973 152.281 184.851 146.475L175.571 138.68Z" fill="#9FFFC0" mask="url(#path-10-outside-2_2035_20701)"/>
<path d="M62.751 106.207C64.4559 106.042 65.7246 106.633 66.2715 106.934C67.3096 107.505 67.9193 108.25 68.0078 108.354C68.22 108.604 68.3745 108.824 68.4531 108.939C68.7106 109.317 68.9812 109.801 69.0615 109.941C69.2133 110.207 69.3333 110.415 69.4512 110.605C69.5773 110.809 69.6243 110.867 69.5986 110.835C69.976 111.307 70.2855 111.77 70.4697 112.047C70.6908 112.379 70.7916 112.533 70.9111 112.697C71.0821 112.932 71.1831 113.032 71.3291 113.137C71.6732 113.383 73.1241 114.241 77.7334 114.589C81.0009 114.836 83.4803 117.636 83.3301 120.909C83.1798 124.183 80.4542 126.743 77.1777 126.689L53.5215 126.302C50.2956 126.249 47.677 123.678 47.5654 120.453C47.454 117.228 49.8888 114.482 53.1035 114.206C55.2896 114.019 56.1612 113.351 56.5107 113.002C56.9255 112.587 57.2118 111.995 57.3447 111.258C57.3502 111.225 57.3542 111.192 57.3604 111.158C57.4392 110.733 57.6608 109.758 58.3809 108.742C59.2418 107.527 60.739 106.402 62.751 106.207Z" fill="black" stroke="#9FFFC0" stroke-width="12.1188" stroke-linecap="round" stroke-linejoin="round"/>
<path d="M171.896 110.894C173.533 110.894 174.72 111.588 174.748 111.604C175.067 111.774 175.305 111.937 175.408 112.009C175.633 112.167 175.81 112.312 175.887 112.376C176.065 112.525 176.238 112.682 176.367 112.801C176.645 113.056 176.997 113.395 177.389 113.775C178.184 114.548 179.278 115.633 180.556 116.91C183.117 119.471 186.486 122.877 189.833 126.272C193.182 129.67 196.518 133.067 199.017 135.614C200.266 136.888 201.306 137.949 202.034 138.692C202.398 139.064 202.684 139.356 202.879 139.556C202.976 139.655 203.052 139.732 203.103 139.783C203.128 139.809 203.146 139.829 203.159 139.842L203.179 139.861L203.336 140.028C204.923 141.777 205.353 144.298 204.419 146.482C203.454 148.737 201.226 150.188 198.773 150.158L167.168 149.771C163.97 149.731 161.353 147.213 161.19 144.019C161.028 140.825 163.376 138.055 166.554 137.691C168.804 137.434 170.806 136.344 171.692 134.917C172.344 133.867 173.41 130.955 170.008 124.398C169.992 124.369 169.978 124.338 169.963 124.308C169.92 124.243 169.853 124.141 169.753 124.001C169.487 123.631 169.129 123.164 168.742 122.675C168.363 122.195 167.99 121.736 167.709 121.396C167.57 121.226 167.455 121.088 167.376 120.994C167.337 120.947 167.307 120.911 167.287 120.888C167.277 120.876 167.27 120.867 167.266 120.861L167.261 120.856L167.122 120.686C165.723 118.897 165.439 116.468 166.402 114.397C167.396 112.261 169.539 110.894 171.896 110.894Z" fill="black" stroke="#9FFFC0" stroke-width="12.1188" stroke-linecap="round" stroke-linejoin="round"/>
<path d="M28.752 106.832C31.1194 105.505 34.0799 105.914 35.999 107.833C36.7711 108.605 37.199 109.465 37.2529 109.567C37.4219 109.889 37.5637 110.205 37.6719 110.465C37.7811 110.727 37.8963 111.028 37.9961 111.335C38.0447 111.485 38.1092 111.698 38.1689 111.945C38.1975 112.064 38.3555 112.688 38.3555 113.475C38.3555 113.561 38.3542 113.647 38.3506 113.732C38.5374 114.483 38.7239 115.225 38.9072 115.958C39.1326 116.529 39.4386 117.198 39.8477 117.964C40.9536 120.035 42.4208 122.106 43.6719 123.715C43.682 123.728 43.6921 123.742 43.7021 123.755C47.2276 128.365 50.2672 131.336 53.3779 133.456C56.4674 135.562 59.9123 137.022 64.5078 138.26C67.4427 139.05 69.3389 141.892 68.9404 144.905C68.5419 147.918 65.972 150.17 62.9326 150.17H31.7148C29.3354 150.17 27.1757 148.778 26.1943 146.61C25.2131 144.443 25.5915 141.901 27.1611 140.113C29.3959 137.568 30.0289 135.29 29.7451 131.637C29.4933 128.395 28.5853 124.685 27.2881 119.477C26.8805 118.307 26.551 117.065 26.374 115.788C26.196 115.064 26.0116 114.315 25.8242 113.537C25.1884 110.899 26.3846 108.159 28.752 106.832Z" fill="black" stroke="#9FFFC0" stroke-width="12.1188" stroke-linecap="round" stroke-linejoin="round"/>
<path d="M95.46 29.3662C97.0246 28.703 98.802 28.7262 100.355 29.4404C102.013 30.2024 103.239 31.6701 103.693 33.4365C103.84 34.0049 104.708 35.299 107.798 36.623C110.62 37.8325 113.918 38.4435 115.935 38.5986C119.181 38.8486 121.649 41.6195 121.524 44.873C121.399 48.1265 118.726 50.7 115.47 50.7002H90.2627C86.087 50.7002 82.2053 51.225 79.4102 51.7393C78.0235 51.9944 76.9273 52.2423 76.2236 52.4121C75.8733 52.4967 75.6167 52.5628 75.4551 52.6045C75.4225 52.6129 75.2665 52.653 75.1572 52.6787C75.1553 52.6792 74.9857 52.7212 74.7783 52.7568C74.7163 52.7675 74.5901 52.7876 74.4297 52.8057C74.3651 52.8129 73.8975 52.8717 73.3057 52.8281C72.9184 52.7871 71.8027 52.5223 71.1016 52.2344C69.7596 51.344 67.8227 48.0401 67.7764 45.7715C68.1613 44.4444 69.2446 42.7334 69.7041 42.2744C69.967 42.0517 70.4136 41.7262 70.5898 41.6143C70.9021 41.4234 71.1631 41.3039 71.2363 41.2705C71.2445 41.2668 71.2528 41.2633 71.2607 41.2598L95.1494 29.5078L95.46 29.3662ZM75.6973 52.5215C75.7036 52.5194 75.7507 52.5041 75.8135 52.4814C75.8423 52.4711 75.9194 52.4429 76.0176 52.4033C76.0221 52.4015 76.027 52.3986 76.0322 52.3965C75.9216 52.4408 75.8104 52.4838 75.6973 52.5215ZM76.1924 52.3281C76.2156 52.3179 76.2409 52.3086 76.2666 52.2969C76.2795 52.291 76.298 52.2809 76.3223 52.2695C76.2791 52.2895 76.236 52.3092 76.1924 52.3281Z" fill="black" stroke="#9FFFC0" stroke-width="12.1188" stroke-linecap="round" stroke-linejoin="round"/>
<path d="M245.387 105.715L253.143 132.667" stroke="#9FFFC0" stroke-width="12.1188" stroke-linecap="round" stroke-linejoin="round"/>
<path d="M244.192 109.778C245.697 108.265 247.887 107.654 249.958 108.172C250.895 108.406 251.76 108.885 251.872 108.944C252.257 109.147 252.688 109.391 253.121 109.646C253.994 110.159 255.042 110.814 256.043 111.481C257.01 112.126 258.088 112.885 258.941 113.597C259.316 113.91 259.938 114.45 260.476 115.123C260.703 115.408 261.29 116.169 261.646 117.279C262.042 118.509 262.41 121.301 260.142 123.57C259.994 123.718 259.839 123.858 259.678 123.989C258.677 124.802 258.237 125.483 258.068 125.971C258.018 126.116 257.964 126.322 257.956 126.615L258.624 129.225C259.414 132.311 257.678 135.482 254.652 136.48C251.627 137.479 248.345 135.963 247.143 133.013C246.54 131.534 246.148 130.065 245.962 128.621L242.618 115.553C242.089 113.485 242.687 111.292 244.192 109.778Z" fill="black" stroke="#9FFFC0" stroke-width="12.1188" stroke-linecap="round" stroke-linejoin="round"/>
<path d="M83.8659 58.7923L81.5391 57.6289" stroke="#9FFFC0" stroke-width="12.1188" stroke-linecap="round" stroke-linejoin="round"/>
<path d="M68.1641 58.7898L70.297 57.8203" stroke="#9FFFC0" stroke-width="12.1188" stroke-linecap="round" stroke-linejoin="round"/>
</g>
<path fill-rule="evenodd" clip-rule="evenodd" d="M33.2562 108.426L72.6181 144.491C71.0669 144.491 27.6331 144.491 26.2758 144.491C17.3563 144.297 9.7942 132.663 19.1014 122.774C22.9795 118.703 31.3172 110.559 33.2562 108.426Z" fill="#9FFFC0" stroke="black" stroke-width="3.81694" stroke-linecap="round" stroke-linejoin="bevel"/>
<path fill-rule="evenodd" clip-rule="evenodd" d="M76.8893 144.491C50.131 145.072 35.2006 129.754 33.6494 110.17C31.3226 78.1766 46.253 58.0109 78.2466 44.6318C104.811 33.7733 120.129 13.4137 154.062 12.6381C204.864 11.4747 222.121 41.3355 247.716 111.915C248.492 114.048 258.381 118.12 264.391 124.519C275.444 136.347 267.494 144.879 257.217 144.879C250.624 144.879 83.6758 144.491 76.8893 144.491Z" fill="#9FFFC0" stroke="black" stroke-width="3.81694" stroke-linecap="round" stroke-linejoin="bevel"/>
<path d="M51.4844 120.454C61.3733 120.648 64.4757 110.759 64.6696 103.391C63.894 124.914 87.1621 126.077 95.1121 108.044" stroke="black" stroke-width="3.81694" stroke-linecap="round" stroke-linejoin="bevel"/>
<path fill-rule="evenodd" clip-rule="evenodd" d="M64.4675 103.774C63.498 103.386 60.5894 101.253 59.426 99.896C52.6395 91.9461 70.2845 90.201 72.8052 95.4363C74.3564 98.1509 72.2235 100.09 70.6723 101.059C67.376 103.192 64.4675 103.774 64.4675 103.774Z" fill="black" stroke="black" stroke-width="3.81694" stroke-linecap="round" stroke-linejoin="bevel"/>
<path fill-rule="evenodd" clip-rule="evenodd" d="M60.9857 67.3275C65.4454 66.9397 68.3539 70.8177 67.5783 76.053C66.6088 81.2884 62.1491 85.7481 57.4955 86.3298C53.0358 86.7176 50.1273 82.8396 51.0968 77.6043C52.0663 72.3689 56.526 67.7153 60.9857 67.3275Z" fill="black" stroke="black" stroke-width="3.81694" stroke-linecap="round" stroke-linejoin="bevel"/>
<path fill-rule="evenodd" clip-rule="evenodd" d="M88.5322 67.3275C93.1858 66.9397 96.0943 70.8177 95.1248 76.053C94.1553 81.2884 89.6956 85.7481 85.2358 86.3298C80.5822 86.7176 77.6737 82.8396 78.6432 77.6043C79.6127 72.3689 84.0724 67.7153 88.5322 67.3275Z" fill="black" stroke="black" stroke-width="3.81694" stroke-linecap="round" stroke-linejoin="bevel"/>
<path fill-rule="evenodd" clip-rule="evenodd" d="M97.2352 71.3844C97.2352 68.6698 98.7864 74.8746 98.7864 76.6198C98.7864 78.3649 97.623 82.8246 96.0718 83.2124C94.7145 83.6002 91.4182 87.6721 92.7755 85.5392C94.1328 83.2124 91.6121 81.2734 90.0609 79.9161C87.928 78.3649 87.928 76.0381 90.6426 75.2625C92.9694 74.4868 97.0413 74.4868 97.2352 71.3844Z" fill="#9FFFC0"/>
<path fill-rule="evenodd" clip-rule="evenodd" d="M69.7221 71.3844C69.7221 68.6698 71.2733 74.8746 71.2733 76.6198C71.2733 78.3649 69.916 82.8246 68.5587 83.2124C67.2014 83.6002 63.9051 87.6721 65.2624 85.5392C66.6197 83.2124 64.099 81.2734 62.3539 79.9161C60.4148 78.3649 60.4148 76.0381 63.1295 75.2625C65.4563 74.4868 69.5282 74.4868 69.7221 71.3844Z" fill="#9FFFC0"/>
<path d="M155.599 100.094C159.09 103.002 164.131 108.625 166.846 111.34C177.122 121.617 181.582 131.312 175.571 138.68C171.499 143.528 161.223 144.497 147.262 144.691" stroke="black" stroke-width="3.81694" stroke-linecap="round" stroke-linejoin="bevel"/>
<path fill-rule="evenodd" clip-rule="evenodd" d="M53.6211 120.244C60.4076 119.662 62.7344 115.59 63.3161 112.294C63.3161 111.906 64.0917 113.651 64.8673 114.62C66.4186 116.559 67.0003 119.856 77.277 120.631L53.6211 120.244Z" fill="black" stroke="black" stroke-width="3.81694" stroke-linecap="round" stroke-linejoin="bevel"/>
<path fill-rule="evenodd" clip-rule="evenodd" d="M167.242 143.711C174.029 142.936 183.336 136.925 175.386 121.607C174.998 120.637 171.896 116.953 171.896 116.953C172.284 116.953 198.848 144.099 198.848 144.099L167.242 143.711Z" fill="black" stroke="black" stroke-width="3.81694" stroke-linecap="round" stroke-linejoin="bevel"/>
<path fill-rule="evenodd" clip-rule="evenodd" d="M62.9329 144.111C52.85 141.396 46.4513 137.324 38.8892 127.435C36.1746 123.945 32.1026 117.934 32.2965 113.474C32.2965 113.281 31.9087 112.311 31.7148 112.117C35.5929 128.211 38.6953 136.161 31.7148 144.111H62.9329Z" fill="black" stroke="black" stroke-width="3.81694" stroke-linecap="round" stroke-linejoin="bevel"/>
<path fill-rule="evenodd" clip-rule="evenodd" d="M97.8244 34.9453L73.7807 46.7733C73.199 46.9672 80.9551 44.6404 90.2623 44.6404C99.1818 44.6404 115.469 44.6404 115.469 44.6404C110.428 44.2526 99.5696 41.7318 97.8244 34.9453Z" fill="black" stroke="black" stroke-width="3.81694" stroke-linecap="round" stroke-linejoin="bevel"/>
<path d="M245.387 105.715L253.143 132.667" stroke="black" stroke-width="3.81694" stroke-linecap="round" stroke-linejoin="bevel"/>
<path fill-rule="evenodd" clip-rule="evenodd" d="M248.488 114.051L252.754 130.726C250.621 125.491 252.754 121.807 255.857 119.286C256.438 118.704 249.264 114.245 248.488 114.051Z" fill="black" stroke="black" stroke-width="3.81694" stroke-linecap="round" stroke-linejoin="bevel"/>
<path d="M83.8659 58.7923L81.5391 57.6289" stroke="black" stroke-width="3.81694" stroke-linecap="round" stroke-linejoin="bevel"/>
<path d="M68.1641 58.7898L70.297 57.8203" stroke="black" stroke-width="3.81694" stroke-linecap="round" stroke-linejoin="bevel"/>
</g>
<defs>
<filter id="filter0_ii_2035_20701" x="2.71875" y="0.488281" width="279.172" height="192.622" filterUnits="userSpaceOnUse" color-interpolation-filters="sRGB">
<feFlood flood-opacity="0" result="BackgroundImageFix"/>
<feBlend mode="normal" in="SourceGraphic" in2="BackgroundImageFix" result="shape"/>
<feColorMatrix in="SourceAlpha" type="matrix" values="0 0 0 0 0 0 0 0 0 0 0 0 0 0 0 0 0 0 127 0" result="hardAlpha"/>
<feOffset dy="0.641461"/>
<feGaussianBlur stdDeviation="0.641461"/>
<feComposite in2="hardAlpha" operator="arithmetic" k2="-1" k3="1"/>
<feColorMatrix type="matrix" values="0 0 0 0 1 0 0 0 0 1 0 0 0 0 1 0 0 0 0.8 0"/>
<feBlend mode="normal" in2="shape" result="effect1_innerShadow_2035_20701"/>
<feColorMatrix in="SourceAlpha" type="matrix" values="0 0 0 0 0 0 0 0 0 0 0 0 0 0 0 0 0 0 127 0" result="hardAlpha"/>
<feOffset dy="51.3169"/>
<feGaussianBlur stdDeviation="18.0571"/>
<feComposite in2="hardAlpha" operator="arithmetic" k2="-1" k3="1"/>
<feColorMatrix type="matrix" values="0 0 0 0 1 0 0 0 0 1 0 0 0 0 1 0 0 0 0.15 0"/>
<feBlend mode="normal" in2="effect1_innerShadow_2035_20701" result="effect2_innerShadow_2035_20701"/>
</filter>
<filter id="filter1_d_2035_20701" x="0.698949" y="0.488281" width="283.211" height="160.547" filterUnits="userSpaceOnUse" color-interpolation-filters="sRGB">
<feFlood flood-opacity="0" result="BackgroundImageFix"/>
<feColorMatrix in="SourceAlpha" type="matrix" values="0 0 0 0 0 0 0 0 0 0 0 0 0 0 0 0 0 0 127 0" result="hardAlpha"/>
<feOffset dy="2.0198"/>
<feGaussianBlur stdDeviation="1.0099"/>
<feComposite in2="hardAlpha" operator="out"/>
<feColorMatrix type="matrix" values="0 0 0 0 0 0 0 0 0 0 0 0 0 0 0 0 0 0 0.15 0"/>
<feBlend mode="normal" in2="BackgroundImageFix" result="effect1_dropShadow_2035_20701"/>
<feBlend mode="normal" in="SourceGraphic" in2="effect1_dropShadow_2035_20701" result="shape"/>
</filter>
</defs>
</svg>
