<svg width="156" height="37" viewBox="0 0 156 37" fill="none" xmlns="http://www.w3.org/2000/svg">
<path fill-rule="evenodd" clip-rule="evenodd" d="M24.7571 10.9744C24.7737 10.9744 25.0527 10.9769 25.0527 10.9769C26.0294 10.9769 26.9306 10.394 27.6551 9.23335C27.9449 8.7981 29.9734 5.02592 30.1666 4.59067C31.1326 2.26933 29.1041 0.866848 27.5585 0.866848C27.2687 0.866848 19.5891 0.866848 19.251 0.866848C18.6714 0.866848 16.0633 0.673402 14.7592 3.04311C13.6966 5.12264 10.1225 11.1678 9.34971 12.5703C7.94904 15.2785 9.25311 17.7933 11.4749 19.1474C12.9238 20.1146 15.049 21.5171 17.2225 22.968C17.2225 22.968 16.2565 24.177 15.0973 23.4032C14.8075 23.2098 9.8327 19.9696 9.54291 19.7761C8.48033 19.0991 6.11367 18.4704 4.6164 20.4532C4.4715 20.6466 2.63613 23.645 2.10484 24.4188C0.317774 27.1754 0.366073 29.932 2.44294 31.5763C2.92593 32.0115 4.90619 33.9943 5.34088 34.4296C7.03135 36.1222 7.07965 36.3157 9.63951 36.364C9.6878 36.364 17.1742 36.364 17.2225 36.364C18.7197 36.4124 19.4925 36.1222 20.3136 35.2034C22.8252 30.8025 29.3456 18.2286 29.8285 17.4064C30.553 16.2457 30.1183 15.0851 29.249 14.5531C28.9109 14.3113 27.9932 13.6826 27.6551 13.4408C26.3993 12.5219 26.4959 12.5703 24.7088 12.5703C24.6122 12.5703 23.3082 12.5703 22.7769 12.5703C22.4871 12.5703 21.9075 12.6186 21.3279 12.0867C21.0381 11.7965 20.8932 11.4096 20.8449 10.9744C22.5837 10.9744 23.0184 10.9744 24.7571 10.9744Z" fill="#0F0F0F"/>
<path fill-rule="evenodd" clip-rule="evenodd" d="M30.6979 13.4399C29.4905 12.7144 28.6211 10.9251 29.5388 9.23242C29.9734 8.31356 31.4707 5.55696 32.485 3.7676C33.6442 1.78478 34.1755 0.96264 36.9285 0.96264C37.0734 0.96264 45.2843 0.96264 45.3326 0.96264C48.4237 0.96264 48.5203 3.18726 48.5203 4.05776C48.5203 4.44465 48.5203 11.7956 48.5203 12.2308C48.5203 13.8267 46.3469 15.5678 43.7387 13.5366C43.5938 13.4399 41.855 12.1341 40.6959 11.2636C40.3578 11.0218 38.9571 9.90948 38.7639 9.7644C38.619 9.61931 37.9428 11.4087 39.4401 12.4726C40.068 12.9562 41.5169 14.1169 42.1448 14.6005C43.787 15.7128 43.7387 17.8407 42.2897 18.8563C41.8067 19.2432 40.551 20.017 39.9231 20.4039C37.8945 21.5162 38.619 23.3539 38.6673 23.3056C39.0537 22.967 44.1251 19.8719 44.6564 19.4367C46.202 18.3243 48.6652 18.953 48.5686 21.0809C48.5686 21.226 48.5686 32.1557 48.5686 32.3008C48.6652 34.9606 47.7475 36.3631 44.8979 36.4598C44.6081 36.5082 26.3993 36.4598 26.0612 36.4598C23.4048 36.4598 22.6803 33.8 23.9361 31.6721C26.6891 27.2228 30.9394 18.4694 31.7605 16.9702C32.2918 16.003 32.7748 14.6972 31.3741 13.8751C29.9735 13.0046 32.4367 14.5038 30.6979 13.4399Z" fill="#0F0F0F"/>
<path fill-rule="evenodd" clip-rule="evenodd" d="M50.1632 33.461C50.1149 33.1708 50.1149 3.67043 50.1149 3.47698C50.2115 2.02614 51.1775 0.913831 53.2061 0.962193C53.3027 0.962193 57.2149 0.962193 57.3115 0.962193C59.0503 1.05892 60.3543 2.12286 61.3686 4.00895C62.0448 5.31471 74.8924 30.1241 76.0516 32.0585C77.259 34.138 76.0999 36.4594 74.1679 36.4594C73.057 36.4594 67.7441 36.4594 66.44 36.411C64.8462 36.3627 64.1217 35.202 63.9768 34.1864C63.9285 33.7995 63.7836 32.397 63.687 31.7683C63.5904 31.0913 63.7836 29.979 64.653 29.5437C65.6672 29.0117 66.9713 28.7216 67.5509 28.3831C68.3237 27.9478 68.1305 27.174 68.1305 27.174C67.5026 27.174 56.0557 27.174 56.0557 27.174C56.0557 27.174 55.9108 28.0929 56.6353 28.3347C56.8285 28.3831 59.002 29.0118 60.2094 29.447C61.8033 30.0757 61.8999 30.8978 62.0931 31.6716C62.1414 31.9134 62.3346 34.0413 62.3346 34.3315C62.4312 35.3471 61.9482 36.3627 60.2577 36.411C58.2292 36.411 55.1863 36.411 53.5925 36.411C51.7088 36.411 50.2115 35.3471 50.1632 33.461Z" fill="#0F0F0F"/>
<path fill-rule="evenodd" clip-rule="evenodd" d="M63.2033 4.05894C64.6523 6.91226 76.0509 28.3847 77.4033 31.0929L77.5965 31.5282V31.6249C77.9829 32.2536 78.8039 34.2848 79.6733 35.2036C80.4944 36.1225 81.2672 36.4127 82.7645 36.3643C82.7645 36.3643 89.7195 36.3643 89.7678 36.3643C92.3277 36.3159 92.376 36.1225 94.0665 34.4298C94.5012 33.9946 96.4814 32.0118 97.0127 31.5765C99.0413 29.9322 99.0896 27.1756 97.3025 24.4191C96.7712 23.6453 94.9359 20.6469 94.791 20.4534C93.2937 18.4706 90.9753 19.0993 89.8644 19.7764C89.7196 19.8731 88.6087 20.5985 87.4012 21.3723L87.1114 21.5657C86.2903 22.0494 85.4692 21.9526 85.1311 21.6625C84.793 21.4207 84.5515 21.0338 84.4549 20.2116C83.9719 17.1165 82.523 10.1041 81.8468 5.41306C81.3155 1.44743 78.659 0.91546 77.1618 0.91546C76.2924 0.963821 65.6666 0.963821 64.9421 0.963821C63.3965 1.01218 62.3339 2.60811 63.2033 4.05894Z" fill="#0F0F0F"/>
<path d="M88.2226 12.24C88.7056 12.24 89.1886 12.3367 89.6716 12.6269C90.1545 12.8687 90.5409 13.2556 90.8307 13.7392C91.0722 14.2228 91.2171 14.7065 91.2171 15.2384C91.2171 15.7704 91.0722 16.254 90.8307 16.7376C90.5409 17.2212 90.2028 17.6081 89.7199 17.8499C89.2369 18.1401 88.7056 18.2368 88.2226 18.2368C87.6913 18.2368 87.2083 18.1401 86.7253 17.8499C86.2423 17.6081 85.8559 17.2212 85.6144 16.7376C85.3246 16.254 85.1797 15.7704 85.1797 15.2384C85.1797 14.7065 85.3246 14.2228 85.6144 13.7392C85.8559 13.2556 86.2423 12.8687 86.7253 12.6269C87.2083 12.3367 87.6913 12.24 88.2226 12.24ZM88.2226 12.7236C87.7879 12.7236 87.3532 12.8204 86.9668 13.0622C86.5804 13.2556 86.2423 13.5941 86.0491 13.981C85.8076 14.3679 85.711 14.8032 85.711 15.2384C85.711 15.6737 85.8076 16.1089 86.0491 16.4958C86.2423 16.8827 86.5804 17.1729 86.9668 17.4147C87.3532 17.6565 87.7879 17.7532 88.2226 17.7532C88.6573 17.7532 89.0437 17.6565 89.4301 17.4147C89.8647 17.1729 90.1545 16.8827 90.396 16.4958C90.5892 16.1089 90.7341 15.6737 90.7341 15.2384C90.7341 14.8032 90.5892 14.3679 90.396 13.981C90.1545 13.5941 89.8164 13.2556 89.4301 13.0622C89.0437 12.8204 88.609 12.7236 88.2226 12.7236ZM86.8702 16.8827V13.6909H87.9811C88.3675 13.6909 88.6573 13.6909 88.8022 13.7392C88.9954 13.8359 89.1403 13.9327 89.2369 14.0778C89.3335 14.2228 89.3818 14.3679 89.3818 14.5614C89.3818 14.8032 89.2852 14.9966 89.1403 15.1417C88.9471 15.3351 88.7539 15.4319 88.4641 15.4802C88.5607 15.4802 88.6573 15.577 88.7539 15.6253C88.8505 15.7704 89.0437 15.9638 89.1886 16.254L89.6233 16.8827H88.9471L88.6573 16.3991C88.4641 16.0122 88.2709 15.722 88.126 15.6253C88.0294 15.577 87.8845 15.5286 87.7396 15.5286H87.4015V16.8827H86.8702ZM87.4015 15.0933H88.0294C88.3675 15.0933 88.5607 15.045 88.6573 14.9483C88.7539 14.8515 88.8505 14.7548 88.8505 14.6097C88.8505 14.513 88.8022 14.4163 88.7539 14.3196C88.7056 14.2712 88.609 14.2228 88.5124 14.1745C88.4158 14.1261 88.2709 14.1261 87.9811 14.1261H87.4015V15.0933Z" fill="#0F0F0F"/>
<path fill-rule="evenodd" clip-rule="evenodd" d="M93.0353 26.2664L103.455 35.8259C103.044 35.8259 91.5468 35.8259 91.1875 35.8259C88.8263 35.7745 86.8245 32.6908 89.2883 30.0696C90.3149 28.9903 92.522 26.8317 93.0353 26.2664Z" fill="#FBFFEA"/>
<path fill-rule="evenodd" clip-rule="evenodd" d="M93.0137 25.757C93.1479 25.7508 93.279 25.7985 93.378 25.8893L103.798 35.4488C103.951 35.5898 104.003 35.8107 103.927 36.0051C103.852 36.1996 103.665 36.3277 103.457 36.3277H91.1889C91.1852 36.3277 91.1816 36.3276 91.1779 36.3275C89.7837 36.2972 88.5273 35.3796 87.9678 34.1118C87.3937 32.8107 87.5585 31.1693 88.9218 29.7188L88.9239 29.7167C89.4414 29.1725 90.2529 28.36 90.994 27.6179L90.9985 27.6135C91.7492 26.8618 92.4168 26.1931 92.6629 25.922C92.7533 25.8225 92.8795 25.7631 93.0137 25.757ZM93.0608 26.9704C92.7236 27.317 92.2396 27.8016 91.7326 28.3092L91.7129 28.3289C90.9672 29.0756 90.1647 29.8792 89.6566 30.4133C88.5571 31.5837 88.4911 32.7942 88.8921 33.7029C89.3071 34.6433 90.2296 35.2927 91.1947 35.3159H102.157L93.0608 26.9704Z" fill="#0F0F0F"/>
<path fill-rule="evenodd" clip-rule="evenodd" d="M104.2 35.8209C97.1167 35.9751 93.1643 31.9148 92.7537 26.7239C92.1378 18.2437 96.0901 12.8986 104.559 9.35235C111.591 6.47422 115.646 1.07773 124.629 0.872151C138.077 0.56378 142.646 8.47863 149.421 27.1865C149.626 27.7518 152.192 29.1042 153.835 30.5272C156.338 32.6944 154.912 35.9237 152.192 35.9237C150.447 35.9237 105.997 35.8209 104.2 35.8209Z" fill="#FBFFEA"/>
<path fill-rule="evenodd" clip-rule="evenodd" d="M133.028 2.69298C130.683 1.73481 127.949 1.30366 124.636 1.37961L124.636 1.37961C120.259 1.4798 117.083 2.84019 114.11 4.55042C113.214 5.06562 112.327 5.62006 111.425 6.18315C109.36 7.47317 107.222 8.80859 104.748 9.82156C100.568 11.5721 97.5562 13.7446 95.6599 16.4782C93.7693 19.2038 92.9518 22.5385 93.2529 26.6873C93.449 29.1622 94.4855 31.3451 96.298 32.8937C98.1114 34.4432 100.742 35.3918 104.185 35.3169C104.188 35.3168 104.192 35.3167 104.196 35.3167C105.095 35.3167 116.657 35.3424 128.212 35.3681L128.456 35.3687C139.93 35.3942 151.322 35.4195 152.187 35.4195C153.334 35.4195 154.18 34.7464 154.492 33.8701C154.799 33.0068 154.609 31.8719 153.5 30.9115C152.763 30.2729 151.827 29.6449 150.99 29.0826C150.927 29.0403 150.864 28.9984 150.803 28.9569C150.369 28.6652 149.963 28.3894 149.653 28.1487C149.497 28.0284 149.354 27.9083 149.239 27.792C149.135 27.6866 149.006 27.5392 148.942 27.3611L148.941 27.3607C145.55 17.995 142.74 11.4274 139.139 7.22956C137.349 5.1427 135.369 3.64969 133.028 2.69298ZM149.891 27.0144C149.891 27.0147 149.891 27.015 149.891 27.0153C149.891 27.015 149.891 27.0147 149.891 27.0144ZM149.885 26.9988C146.504 17.6654 143.643 10.9272 139.906 6.57038C138.026 4.37859 135.919 2.78147 133.41 1.75625C130.904 0.732498 128.025 0.289933 124.613 0.368163C120.008 0.473561 116.664 1.9142 113.607 3.67315C112.646 4.22556 111.725 4.80156 110.806 5.37585C108.775 6.64515 106.757 7.90613 104.364 8.88584L104.36 8.8874C100.072 10.6829 96.8731 12.9559 94.8301 15.9011C92.7814 18.8543 91.9307 22.4317 92.2452 26.7623L92.2455 26.7656C92.4603 29.481 93.6053 31.923 95.6421 33.6633C97.6773 35.4023 100.562 36.4066 104.201 36.3285C105.139 36.3286 116.676 36.3542 128.21 36.3798L128.468 36.3804C139.936 36.4059 151.32 36.4312 152.187 36.4312C153.761 36.4312 154.988 35.4898 155.444 34.2097C155.904 32.9165 155.555 31.3532 154.161 30.1463C153.374 29.4649 152.388 28.8033 151.563 28.249C151.496 28.2043 151.43 28.1603 151.366 28.117C150.927 27.822 150.55 27.5648 150.271 27.3485C150.131 27.2402 150.027 27.1508 149.956 27.0794C149.909 27.0313 149.89 27.005 149.885 26.9988Z" fill="#0F0F0F"/>
<path fill-rule="evenodd" clip-rule="evenodd" d="M101.368 24.4182C101.646 24.4268 101.864 24.6588 101.857 24.9371C101.856 24.9628 101.856 24.9887 101.855 25.0147C101.821 26.3127 102.143 27.255 102.629 27.8869C103.122 28.528 103.81 28.887 104.57 28.9693C106.094 29.1346 107.97 28.1749 108.948 25.9532C109.061 25.6976 109.359 25.5817 109.614 25.6944C109.87 25.8071 109.986 26.1057 109.873 26.3613C108.747 28.9194 106.491 30.1953 104.461 29.9752C103.443 29.8648 102.498 29.3757 101.828 28.5039C101.624 28.2381 101.448 27.9403 101.303 27.6115C101.215 27.8139 101.115 28.0105 101.002 28.1984C100.385 29.2196 99.3699 29.9821 97.8518 29.9523C97.5728 29.9468 97.3511 29.716 97.3565 29.4366C97.362 29.1573 97.5926 28.9353 97.8716 28.9408C98.9712 28.9624 99.6753 28.44 100.137 27.6752C100.602 26.9041 100.812 25.8905 100.845 24.983C100.845 24.9573 100.846 24.9315 100.847 24.9056C100.857 24.6273 101.09 24.4095 101.368 24.4182Z" fill="#0F0F0F"/>
<path fill-rule="evenodd" clip-rule="evenodd" d="M101.296 25.0266C101.039 24.9238 100.269 24.3584 99.9613 23.9987C98.1647 21.8915 102.836 21.4289 103.503 22.8166C103.914 23.5361 103.349 24.0501 102.938 24.307C102.066 24.8724 101.296 25.0266 101.296 25.0266Z" fill="#0F0F0F"/>
<path fill-rule="evenodd" clip-rule="evenodd" d="M100.072 23.187C100.092 23.2874 100.162 23.4488 100.351 23.6716C100.469 23.8093 100.704 24.0142 100.959 24.2072C101.082 24.3007 101.202 24.3848 101.302 24.4499C101.325 24.4644 101.346 24.4777 101.366 24.4897C101.434 24.4697 101.522 24.4419 101.624 24.4048C101.898 24.3058 102.272 24.1417 102.67 23.8841L102.677 23.8798C102.855 23.7683 103.015 23.6303 103.095 23.4885C103.131 23.4243 103.146 23.3675 103.147 23.3133C103.147 23.2604 103.134 23.181 103.07 23.0693C103.065 23.059 103.059 23.0485 103.054 23.0378C102.988 22.9011 102.763 22.7215 102.306 22.6136C101.875 22.512 101.358 22.5057 100.913 22.5948C100.441 22.6893 100.182 22.8622 100.099 22.9969C100.069 23.0455 100.054 23.1 100.072 23.187ZM101.302 25.0283L101.401 25.5243C101.305 25.5436 101.205 25.5344 101.114 25.498C100.915 25.4182 100.609 25.2109 100.349 25.0142C100.078 24.8091 99.7739 24.5516 99.5838 24.3296L99.5832 24.3288C99.3241 24.025 99.1468 23.7111 99.0813 23.3883C99.0132 23.0522 99.0732 22.7356 99.239 22.4662C99.5474 21.9649 100.161 21.7138 100.715 21.6027C101.297 21.4862 101.961 21.4928 102.537 21.6289C103.082 21.7574 103.684 22.036 103.956 22.5822C104.245 23.1 104.196 23.5927 103.975 23.9855C103.773 24.343 103.448 24.5898 103.216 24.7356C102.742 25.0421 102.297 25.2372 101.968 25.3562C101.803 25.416 101.666 25.4571 101.568 25.4836C101.519 25.4969 101.48 25.5066 101.452 25.5132C101.438 25.5165 101.426 25.519 101.418 25.5209L101.407 25.5231L101.404 25.5238L101.402 25.5241L101.402 25.5242C101.401 25.5243 101.401 25.5243 101.302 25.0283Z" fill="#0F0F0F"/>
<path fill-rule="evenodd" clip-rule="evenodd" d="M100.377 15.3683C101.558 15.2655 102.328 16.2934 102.122 17.6811C101.866 19.0687 100.685 20.2508 99.4532 20.405C98.2726 20.5078 97.5027 19.4799 97.7594 18.0922C98.016 16.7046 99.1966 15.4711 100.377 15.3683Z" fill="#0F0F0F"/>
<path fill-rule="evenodd" clip-rule="evenodd" d="M101.366 16.272C101.159 15.9962 100.841 15.8374 100.421 15.874C99.9856 15.9119 99.5024 16.1671 99.0862 16.6007C98.6736 17.0306 98.3651 17.5981 98.2563 18.1861C98.1478 18.7726 98.2658 19.2266 98.4739 19.5088C98.6723 19.7778 98.9837 19.9371 99.4003 19.9036C100.379 19.7755 101.399 18.793 101.624 17.5996C101.709 17.0144 101.582 16.558 101.366 16.272ZM102.173 15.663C102.585 16.2106 102.74 16.9588 102.622 17.7569C102.621 17.7629 102.62 17.7689 102.619 17.7749C102.328 19.349 100.995 20.7235 99.5161 20.9087C99.5098 20.9095 99.5035 20.9101 99.4972 20.9107C98.7379 20.9768 98.0772 20.6739 97.6611 20.1098C97.2533 19.5568 97.1146 18.803 97.2628 18.0018C97.4107 17.2022 97.8208 16.459 98.3577 15.8996C98.8912 15.3438 99.5885 14.9309 100.334 14.8661C101.094 14.7999 101.752 15.1036 102.173 15.663Z" fill="#0F0F0F"/>
<path fill-rule="evenodd" clip-rule="evenodd" d="M107.666 15.3683C108.898 15.2655 109.668 16.2934 109.411 17.6811C109.155 19.0687 107.974 20.2508 106.793 20.405C105.562 20.5078 104.792 19.4799 105.048 18.0922C105.305 16.7046 106.486 15.4711 107.666 15.3683Z" fill="#0F0F0F"/>
<path fill-rule="evenodd" clip-rule="evenodd" d="M107.704 15.874C107.269 15.9122 106.786 16.1674 106.37 16.6007C105.958 17.0306 105.649 17.5981 105.54 18.186C105.432 18.7727 105.55 19.2242 105.761 19.5047C105.962 19.7717 106.286 19.9377 106.735 19.9035C107.184 19.8415 107.671 19.5776 108.082 19.1544C108.495 18.7302 108.802 18.1761 108.91 17.5907C109.018 17.004 108.9 16.5525 108.689 16.272C108.486 16.0029 108.159 15.8363 107.704 15.874ZM109.496 15.6629C109.913 16.2176 110.051 16.9739 109.903 17.7749C109.755 18.5771 109.343 19.3079 108.806 19.8602C108.272 20.4098 107.582 20.8132 106.854 20.9083C106.846 20.9093 106.839 20.9102 106.831 20.9108C106.054 20.9756 105.381 20.6797 104.955 20.1138C104.537 19.5591 104.399 18.8028 104.547 18.0018C104.695 17.2021 105.105 16.459 105.642 15.8996C106.175 15.3438 106.873 14.9309 107.618 14.866L107.619 14.8659C108.396 14.8011 109.07 15.097 109.496 15.6629Z" fill="#0F0F0F"/>
<path fill-rule="evenodd" clip-rule="evenodd" d="M109.969 16.4447C109.969 15.7252 110.38 17.3698 110.38 17.8324C110.38 18.2949 110.072 19.477 109.661 19.5798C109.302 19.6826 108.429 20.7619 108.789 20.1965C109.148 19.5798 108.481 19.0658 108.07 18.7061C107.505 18.2949 107.505 17.6782 108.224 17.4726C108.84 17.267 109.918 17.267 109.969 16.4447Z" fill="#FBFFEA"/>
<path fill-rule="evenodd" clip-rule="evenodd" d="M102.688 16.4447C102.688 15.7252 103.099 17.3698 103.099 17.8324C103.099 18.2949 102.739 19.477 102.38 19.5798C102.021 19.6826 101.148 20.7619 101.507 20.1965C101.867 19.5798 101.199 19.0658 100.738 18.7061C100.224 18.2949 100.224 17.6782 100.943 17.4726C101.559 17.267 102.637 17.267 102.688 16.4447Z" fill="#FBFFEA"/>
<path fill-rule="evenodd" clip-rule="evenodd" d="M125.037 23.725C125.216 23.5103 125.534 23.4813 125.749 23.6602C126.42 24.22 127.312 25.1594 128.017 25.9007C128.305 26.2043 128.562 26.4746 128.76 26.672C130.141 28.0551 131.177 29.4418 131.65 30.7725C132.133 32.132 132.032 33.4566 131.104 34.5962L131.099 34.6018C130.442 35.3855 129.341 35.7971 128.037 36.0334C126.716 36.2727 125.075 36.3498 123.225 36.3755C122.946 36.3794 122.717 36.1561 122.713 35.8767C122.709 35.5974 122.932 35.3678 123.211 35.3639C125.057 35.3382 126.624 35.2611 127.857 35.0378C129.104 34.812 129.902 34.4536 130.323 33.9538C130.984 33.1411 131.087 32.2052 130.698 31.1118C130.299 29.9884 129.384 28.7283 128.045 27.3874C127.812 27.1536 127.528 26.8554 127.222 26.5328C126.533 25.8075 125.726 24.9584 125.102 24.4374C124.887 24.2586 124.859 23.9396 125.037 23.725Z" fill="#0F0F0F"/>
<path fill-rule="evenodd" clip-rule="evenodd" d="M98.4277 29.3964C100.224 29.2422 100.84 28.1629 100.994 27.2892C100.994 27.1864 101.2 27.649 101.405 27.906C101.815 28.4199 101.969 29.2936 104.69 29.4992L98.4277 29.3964Z" fill="#0F0F0F"/>
<path fill-rule="evenodd" clip-rule="evenodd" d="M101.124 28.3911C101.017 28.5774 100.884 28.7595 100.721 28.93L101.548 28.9436C101.448 28.841 101.366 28.7393 101.296 28.6427C101.239 28.5645 101.188 28.4872 101.145 28.423C101.139 28.4136 101.133 28.4044 101.127 28.3955C101.126 28.394 101.125 28.3926 101.124 28.3911ZM101.557 27.2135C101.639 27.3578 101.722 27.5002 101.795 27.5917C101.861 27.6751 101.92 27.7617 101.968 27.8351C101.975 27.8453 101.982 27.8554 101.988 27.8652C102.032 27.9304 102.07 27.9877 102.112 28.0464C102.205 28.1738 102.311 28.2944 102.471 28.4088C102.794 28.6406 103.407 28.8971 104.723 28.9966C104.996 29.0171 105.203 29.2509 105.19 29.5242C105.177 29.7975 104.95 30.0113 104.677 30.0068L98.4149 29.904C98.1459 29.8996 97.9276 29.6849 97.9183 29.4157C97.909 29.1465 98.112 28.9172 98.38 28.8942C99.1777 28.8257 99.6635 28.5588 99.9651 28.2567C100.267 27.9545 100.423 27.5784 100.489 27.2226C100.49 27.2126 100.491 27.2019 100.493 27.1908C100.5 27.1538 100.519 27.0713 100.58 26.9857C100.652 26.8835 100.778 26.7892 100.946 26.7729C101.089 26.759 101.196 26.8085 101.242 26.8342C101.328 26.8816 101.381 26.944 101.394 26.9587C101.394 26.9592 101.394 26.9596 101.395 26.9599C101.415 26.9843 101.432 27.0073 101.442 27.0226C101.476 27.0729 101.517 27.1448 101.55 27.2012C101.552 27.2054 101.554 27.2095 101.557 27.2135Z" fill="#0F0F0F"/>
<path fill-rule="evenodd" clip-rule="evenodd" d="M128.501 35.6187C130.297 35.4131 132.761 33.8199 130.657 29.7597C130.554 29.5027 129.733 28.5262 129.733 28.5262C129.836 28.5262 136.868 35.7215 136.868 35.7215L128.501 35.6187Z" fill="#0F0F0F"/>
<path fill-rule="evenodd" clip-rule="evenodd" d="M129.276 28.3087C129.359 28.1304 129.538 28.0163 129.734 28.0163C129.869 28.0163 129.967 28.0724 129.974 28.0763C129.974 28.0764 129.974 28.0765 129.975 28.0765C130.002 28.0913 130.023 28.1057 130.034 28.1129C130.056 28.1285 130.075 28.1442 130.087 28.1542C130.113 28.1759 130.143 28.2029 130.173 28.2308C130.236 28.2883 130.321 28.3694 130.422 28.4686C130.627 28.6679 130.912 28.951 131.25 29.2887C131.925 29.9646 132.814 30.8651 133.7 31.7647C134.586 32.6645 135.468 33.5642 136.129 34.2389C136.46 34.5763 136.735 34.8575 136.927 35.0543L137.23 35.3636C137.23 35.3636 137.23 35.3636 136.869 35.7174L137.23 35.3636C137.373 35.5099 137.414 35.7282 137.333 35.9164C137.253 36.1046 137.067 36.2258 136.863 36.2233L128.496 36.1205C128.229 36.1172 128.011 35.907 127.998 35.6403C127.984 35.3737 128.18 35.1424 128.445 35.1121C129.248 35.0202 130.144 34.6212 130.614 33.8639C131.064 33.1381 131.214 31.9267 130.21 29.9886C130.202 29.9739 130.195 29.9589 130.189 29.9435C130.189 29.9438 130.189 29.943 130.187 29.9409C130.18 29.9281 130.144 29.8672 130.06 29.7492C129.975 29.6308 129.868 29.4917 129.761 29.3563C129.655 29.2216 129.551 29.0942 129.474 29.0003C129.436 28.9534 129.404 28.9151 129.382 28.8886L129.356 28.8581L129.348 28.848C129.221 28.6975 129.193 28.4871 129.276 28.3087ZM131.799 31.2772C132.13 32.5605 131.968 33.5973 131.472 34.3974C131.295 34.6833 131.081 34.9288 130.844 35.1375L135.652 35.1966C135.575 35.1176 135.493 35.0344 135.408 34.9474C134.747 34.273 133.865 33.3739 132.98 32.4749C132.58 32.0686 132.18 31.6625 131.799 31.2772Z" fill="#0F0F0F"/>
<path fill-rule="evenodd" clip-rule="evenodd" d="M100.892 35.72C98.2228 35.0005 96.5289 33.9212 94.5271 31.3C93.8085 30.3749 92.7306 28.7817 92.7819 27.5996C92.7819 27.5482 92.6793 27.2912 92.6279 27.2398C93.6545 31.5056 94.4758 33.6128 92.6279 35.72H100.892Z" fill="#0F0F0F"/>
<path fill-rule="evenodd" clip-rule="evenodd" d="M92.3822 26.7945C92.5796 26.6837 92.8265 26.7179 92.9865 26.8781C93.0591 26.9508 93.1055 27.0393 93.1219 27.0706L93.1223 27.0713C93.1479 27.1202 93.1718 27.173 93.1919 27.2211C93.212 27.2694 93.2314 27.3209 93.2469 27.3685C93.2545 27.392 93.2628 27.4197 93.2698 27.4486L93.2699 27.4489C93.2743 27.4673 93.2885 27.5258 93.2885 27.5955C93.2885 27.6029 93.2883 27.6102 93.288 27.6175C93.2851 27.6838 93.287 27.7532 93.2935 27.8254C93.3441 28.03 93.394 28.2302 93.4429 28.4262C93.456 28.4787 93.4691 28.531 93.482 28.5829C93.5679 28.8122 93.6797 29.0543 93.8128 29.3038C94.1467 29.9301 94.5768 30.5343 94.9272 30.9854L94.9298 30.9887C95.9094 32.2714 96.7957 33.1532 97.7451 33.8011C98.6928 34.4478 99.7272 34.8778 101.025 35.2275C101.269 35.2935 101.427 35.5307 101.394 35.7823C101.361 36.0338 101.147 36.2218 100.893 36.2218H92.6293C92.4309 36.2218 92.2509 36.1056 92.169 35.9246C92.0872 35.7436 92.1187 35.5315 92.2496 35.3822C93.0689 34.448 93.2975 33.5361 93.2035 32.3245C93.1297 31.3735 92.8625 30.2793 92.5133 28.8768C92.4093 28.5884 92.3315 28.2941 92.2966 28.0042C92.2448 27.7941 92.1919 27.5776 92.1381 27.3543C92.0851 27.134 92.1848 26.9053 92.3822 26.7945ZM94.1408 31.6212C94.1715 31.8359 94.1952 32.0441 94.2109 32.2462C94.2959 33.3417 94.1501 34.2974 93.6189 35.2101H98.1299C97.8029 35.0383 97.4861 34.8486 97.1761 34.6371C96.1156 33.9134 95.1579 32.9504 94.1408 31.6212Z" fill="#0F0F0F"/>
<path fill-rule="evenodd" clip-rule="evenodd" d="M110.132 6.78473L103.767 9.91983C103.613 9.97123 105.666 9.35449 108.13 9.35449C110.491 9.35449 114.803 9.35449 114.803 9.35449C113.468 9.2517 110.594 8.58356 110.132 6.78473Z" fill="#0F0F0F"/>
<path fill-rule="evenodd" clip-rule="evenodd" d="M110.343 6.3211C110.481 6.38471 110.583 6.50725 110.621 6.65472C110.791 7.31829 111.435 7.84882 112.339 8.23664C113.22 8.61487 114.216 8.79793 114.841 8.84609C115.112 8.86694 115.318 9.09825 115.308 9.36987C115.297 9.64149 115.074 9.85631 114.803 9.85631V9.35046C114.803 9.85631 114.803 9.85631 114.803 9.85631H108.13C106.938 9.85631 105.841 10.0058 105.058 10.1499C104.668 10.2218 104.358 10.292 104.156 10.3409C104.055 10.3653 103.981 10.3844 103.935 10.3961C103.933 10.3967 103.931 10.3973 103.928 10.398C103.911 10.4024 103.892 10.4074 103.879 10.4103L103.879 10.4104C103.877 10.411 103.862 10.4144 103.845 10.4173C103.84 10.4182 103.829 10.42 103.816 10.4215L103.815 10.4216C103.807 10.4225 103.769 10.4268 103.722 10.4233C103.69 10.4199 103.597 10.3979 103.538 10.3738C103.426 10.2995 103.265 10.0236 103.261 9.83419C103.293 9.72339 103.383 9.58055 103.421 9.54222C103.443 9.52361 103.481 9.49644 103.495 9.48709C103.522 9.47112 103.543 9.46114 103.55 9.45832C103.555 9.4557 103.56 9.4535 103.564 9.45178L109.909 6.32679C110.045 6.25958 110.205 6.25749 110.343 6.3211ZM111.293 8.8446C110.714 8.51256 110.183 8.06718 109.865 7.47579L107.006 8.88406C107.366 8.85932 107.743 8.8446 108.13 8.8446H111.293Z" fill="#0F0F0F"/>
<path fill-rule="evenodd" clip-rule="evenodd" d="M149.055 25.0571C149.323 24.9798 149.603 25.1348 149.68 25.4033L151.733 32.5473C151.811 32.8157 151.656 33.096 151.388 33.1733C151.12 33.2505 150.84 33.0955 150.762 32.827L148.709 25.6831C148.632 25.4146 148.787 25.1344 149.055 25.0571Z" fill="#0F0F0F"/>
<path fill-rule="evenodd" clip-rule="evenodd" d="M150.011 27.7491L151.14 32.169C150.575 30.7814 151.14 29.8049 151.961 29.1367C152.115 28.9825 150.216 27.8004 150.011 27.7491Z" fill="#0F0F0F"/>
<path fill-rule="evenodd" clip-rule="evenodd" d="M149.653 27.3941C149.778 27.2677 149.961 27.2168 150.134 27.26C150.229 27.284 150.337 27.3406 150.395 27.3712C150.476 27.4138 150.574 27.4691 150.68 27.5316C150.893 27.657 151.153 27.8194 151.401 27.9852C151.647 28.149 151.894 28.3247 152.074 28.4754C152.16 28.5472 152.255 28.6327 152.325 28.7212C152.357 28.7611 152.415 28.8388 152.448 28.9433C152.485 29.0577 152.515 29.3001 152.319 29.4962C152.307 29.5085 152.294 29.5201 152.28 29.5311C151.915 29.8278 151.641 30.1663 151.509 30.5503C151.44 30.7503 151.404 30.9767 151.423 31.2353L151.63 32.0454C151.696 32.3031 151.551 32.5678 151.299 32.6512C151.046 32.7345 150.773 32.608 150.672 32.3616C150.538 32.0304 150.457 31.7125 150.424 31.4087L149.522 27.8762C149.478 27.7035 149.527 27.5204 149.653 27.3941ZM150.966 29.4455C151.053 29.3272 151.147 29.2158 151.247 29.1112C151.129 29.0238 150.99 28.9265 150.841 28.827C150.827 28.8181 150.814 28.8092 150.801 28.8003L150.966 29.4455Z" fill="#0F0F0F"/>
<path fill-rule="evenodd" clip-rule="evenodd" d="M105.366 12.5692C105.491 12.3193 105.794 12.218 106.044 12.343L106.66 12.6513C106.909 12.7763 107.01 13.0801 106.886 13.33C106.761 13.5799 106.457 13.6812 106.208 13.5563L105.592 13.2479C105.342 13.1229 105.241 12.8191 105.366 12.5692Z" fill="#0F0F0F"/>
<path fill-rule="evenodd" clip-rule="evenodd" d="M103.301 12.6383C103.417 12.8926 103.305 13.1925 103.05 13.3081L102.486 13.5651C102.232 13.6807 101.932 13.5682 101.817 13.3139C101.701 13.0596 101.814 12.7597 102.068 12.6441L102.632 12.3871C102.886 12.2715 103.186 12.3839 103.301 12.6383Z" fill="#0F0F0F"/>
</svg>
